<svg width="29" height="28" viewBox="0 0 29 28" fill="none" xmlns="http://www.w3.org/2000/svg">
<path fill-rule="evenodd" clip-rule="evenodd" d="M27.5255 14.6267C27.5255 13.6582 27.4386 12.7269 27.2772 11.8329H14.4137V17.1162H21.7643C21.4476 18.8234 20.4854 20.2699 19.0388 21.2384V24.6654H23.4529C26.0355 22.2876 27.5255 18.7862 27.5255 14.6267Z" fill="#4285F4"/>
<path fill-rule="evenodd" clip-rule="evenodd" d="M14.4137 27.9743C18.1014 27.9743 21.1931 26.7513 23.4529 24.6653L19.0388 21.2384C17.8158 22.0579 16.2514 22.5421 14.4137 22.5421C10.8564 22.5421 7.84539 20.1395 6.77137 16.9113H2.20831V20.45C4.4557 24.9137 9.07463 27.9743 14.4137 27.9743Z" fill="#34A853"/>
<path fill-rule="evenodd" clip-rule="evenodd" d="M6.77134 16.9112C6.49818 16.0917 6.34297 15.2164 6.34297 14.3162C6.34297 13.416 6.49818 12.5406 6.77134 11.7211V8.18243H2.20828C1.28325 10.0263 0.755554 12.1122 0.755554 14.3162C0.755554 16.5201 1.28325 18.6061 2.20828 20.4499L6.77134 16.9112Z" fill="#FBBC05"/>
<path fill-rule="evenodd" clip-rule="evenodd" d="M14.4137 6.09035C16.419 6.09035 18.2194 6.77947 19.6348 8.13286L23.5522 4.21546C21.1869 2.01154 18.0952 0.658142 14.4137 0.658142C9.07463 0.658142 4.4557 3.7188 2.20831 8.18253L6.77137 11.7212C7.84539 8.49294 10.8564 6.09035 14.4137 6.09035Z" fill="#EA4335"/>
</svg>
